<?xml version="1.0" encoding="utf-8"?><svg xmlns="http://www.w3.org/2000/svg" xmlns:xlink="http://www.w3.org/1999/xlink"><symbol viewBox="0 0 171.81 84.72" id="bus" xmlns="http://www.w3.org/2000/svg"><defs><style>.acls-2{fill:#fff;fill-rule:evenodd}.acls-3{fill:#2c2004}</style></defs><g id="aLayer_2" data-name="Layer 2"><g id="aСлой_1" data-name="Слой 1"><path d="M170.45 39.11V39L161 10A14.53 14.53 0 00145.58.09L28 13.39a14.42 14.42 0 00-12.76 15.55l-11 1.25c-2.7.3-4.55 3-4.2 6.05s2.75 5.29 5.45 5l2.83-.32a5.8 5.8 0 00-1.6 4.85 5.73 5.73 0 002.64 4.33l-2.83.32c-2.7.31-4.55 3-4.2 6.08s2.75 5.27 5.45 5l11-1.24.75 6.57a14.43 14.43 0 0015.93 12.7l10.11-1.15a13.1 13.1 0 0023.71-2.68l56.51-6.39a13.11 13.11 0 0023.71-2.68l9.5-1.12a14.43 14.43 0 0012.72-15.93L170.64 40a6.42 6.42 0 00-.19-.89zM57 73.59a2 2 0 111.74-2.18A2 2 0 0157 73.59zm80.22-9.07a2 2 0 01-2.21-1.74 2 2 0 011.77-2.19 2 2 0 01.44 3.93z" fill="#ffdc2f"/><path class="acls-2" d="M143.37 7.44l9.94 29.78a2 2 0 002.09 1.33l7.4-.83 1.32-.15.49-.06-7-21.66c-1.71-5.33-5.7-9.61-11.23-9l-3.13.35.07.22z"/><path class="acls-2" d="M165.19 42.17l-1.86.21-7.41.84a6.72 6.72 0 01-7.08-4.53l-10-29.86-.14-.45-.16-.48v-.14L25.31 20.57a4.83 4.83 0 00-4.24 5.31l1.16 10.25 3.41-.38.62 5.45-3.41.39.53 4.66 3.4-.39.62 5.46-3.4.38.25 2.16 3.41-.39L29 65.36a6.87 6.87 0 007.51 6.06h.08l8.61-1a11.69 11.69 0 0123.24-.11v.46l57-6.45c0-.15 0-.3-.07-.46a11.69 11.69 0 0123.24-2.63v.47l6.91-.78a12.1 12.1 0 0010.7-13.32l-.62-5.48zm-104.1 7.88l-5.09.58-1.52-13.09 5.13-.54zm12.73-1.44l-5.12.58-1.48-13.09 5.12-.58zm18.42-10.26a7.35 7.35 0 01-6.33-6.44l-.59-5.2a1.7 1.7 0 011.5-1.89l3.29 4a.12.12 0 00-.1.12l.3 2.59a2.94 2.94 0 002.86 2.58zM121.38 25c-3.19.37-5.74 2.67-6.06 5.44 0 0 .09.1.23.09l4.55 3.13-8.26.93a1.68 1.68 0 01-1.35-.45 1.65 1.65 0 01-.49-1.33A12.64 12.64 0 01120.94 21z"/><path class="acls-3" d="M92 34.27l-.69.08a2.89 2.89 0 01-2.88-2.58l-.29-2.56a.1.1 0 01.09-.12l5.57-.63s.11 0 .12.1l.29 2.56A2.87 2.87 0 0192 34.27zm6.62-3.73L98 25.33a1.73 1.73 0 00-1.91-1.5l-11.2 1.27a1.7 1.7 0 00-1.5 1.9l.61 5.19a7.34 7.34 0 006.36 6.43l.78 6.9-3.65.41a1.45 1.45 0 00-1.26 1.61l.07.6a1.44 1.44 0 001.58 1.28l10.72-1.21a1.47 1.47 0 001.29-1.61l-.07-.6a1.46 1.46 0 00-1.61-1.28l-3.63.41-.78-6.9a7.36 7.36 0 004.77-7.69zm-45.9 19.29a1.06 1.06 0 00-.91 1.17l.16 1.4a1.05 1.05 0 001.15.94l22.12-2.5a1.07 1.07 0 00.94-1.18L76 48.28a1.07 1.07 0 00-1.18-1l-2.92.33-1.2-10.72 2.3-.25a1.24 1.24 0 00.82-2L69 28.55a1.26 1.26 0 00-2.1.24l-3.32 7a1.24 1.24 0 001.25 1.77l2.29-.26 1.22 10.77-9.11 1L58 38.33l2.27-.26a1.24 1.24 0 00.85-2L56.33 30a1.26 1.26 0 00-2.1.24l-3.32 7A1.25 1.25 0 0052.19 39l2.26-.26 1.22 10.76zm60.64-19.12a.25.25 0 01-.23-.05c.32-2.8 2.88-5.08 6.07-5.44s6.17 1.29 7.1 4c0 0 0 .09-.2.1zm11 14.51l.57-.07a5.17 5.17 0 004.46-5.78 1.72 1.72 0 10-3.41.39 1.74 1.74 0 01-1.43 2l-.58.07a1.74 1.74 0 01-1.84-1.62l-.76-6.73 9.33-1.06a1.64 1.64 0 001.19-.71 1.69 1.69 0 00.2-1.4A12.33 12.33 0 00107.82 33a1.65 1.65 0 00.48 1.32 1.69 1.69 0 001.32.43l8.29-.93.76 6.73a5.19 5.19 0 005.64 4.64zM19.58 38.78l.35 3.11-8.65 1c-.9.1-1.51 1.22-1.37 2.53s1 2.23 1.9 2.13l28.11-3.18c.9-.1 1.52-1.22 1.38-2.5s-1-2.26-1.9-2.16L24.26 41.4l-.35-3.11zm17.33 13.81c-.15-1.28-1-2.26-1.9-2.16l-9.6 1.09L25 48.3l-4.33.49.4 3.21-14.18 1.61c-.9.1-1.51 1.25-1.37 2.53s1 2.23 1.9 2.13l28.11-3.18c.9-.1 1.52-1.22 1.38-2.5zm99.55 4.81a5.19 5.19 0 11-4.6 5.74 5.2 5.2 0 014.6-5.74zm1.69 15a9.89 9.89 0 10-11-8.7 9.89 9.89 0 0011 8.7zM57.4 76.78a5.18 5.18 0 114.6-5.73 5.21 5.21 0 01-4.57 5.73zm-1.69-15a9.89 9.89 0 1010.92 8.73 9.92 9.92 0 00-10.92-8.73zM126 66a11.92 11.92 0 01-.46-2.15 12.49 12.49 0 010-2.52l-57.82 6.55a10.51 10.51 0 01.55 2.45 11.68 11.68 0 010 2.21z"/><path class="acls-3" d="M146.47 7.94a6.56 6.56 0 017 4.49L162 38.66l-8.72 1a2 2 0 01-2.12-1.36l-9.93-29.77zm-128 21l.31 2.81-14.17 1.63c-.9.1-1.52 1.22-1.38 2.5s1 2.26 1.9 2.16l28.12-3.18c.9-.1 1.51-1.22 1.37-2.53s-1-2.23-1.9-2.13l-9.6 1.08-.29-2.53a6.87 6.87 0 016.05-7.59L136.42 9l10.28 30.79a6.69 6.69 0 007.08 4.52l9.27-1 .78 6.84v.82a6.57 6.57 0 01-.8 3.46h-.14a7 7 0 01-4.77 3.3l-10.17 1.15a12.29 12.29 0 01.55 2.45 10.89 10.89 0 010 2.21l10.12-1.15a11.2 11.2 0 009.89-12.38l-1.08-9.55a2.46 2.46 0 00-.11-.45l-9.43-29a11.3 11.3 0 00-12-7.7L28.33 16.58A11.2 11.2 0 0018.47 29zM43.5 70.62l-8.94 1h-.05a6.86 6.86 0 01-7.51-6l-.79-7-4.34.5.83 7.33a11.22 11.22 0 0012.39 9.85l10.71-1.22a11.92 11.92 0 01-.46-2.15 10.61 10.61 0 010-2.52z"/><path class="acls-3" d="M153.85 28.48a2.62 2.62 0 01-2.76-1.76L148.85 20l-4.8.55a2.6 2.6 0 01-.59-5.17l6.9-.78a2.6 2.6 0 012.76 1.76l2.9 8.72a2.6 2.6 0 01-1.64 3.29 2.68 2.68 0 01-.53.11z"/></g></g></symbol><symbol viewBox="0 0 421.79 59.97" id="bus-label" xmlns="http://www.w3.org/2000/svg"><g data-name="Layer 2"><path d="M3.75 60L0 25.16l8.39-.9a14.21 14.21 0 013.76 0 6 6 0 012.73 1.2 6.23 6.23 0 011.89 2.81 20.48 20.48 0 011 4.82l.33 3a15.48 15.48 0 01-.29 6 5.73 5.73 0 01-2.37 3.33 11.08 11.08 0 01-4.63 1.38l-6 .64 1.34 12.27zm.85-14.67l6-.64q3.57-.39 4.65-2.2t.63-6.08l-.31-2.84a29 29 0 00-.45-2.95 8.9 8.9 0 00-.74-2.11 3.56 3.56 0 00-1.23-1.43 5.1 5.1 0 00-1.86-.65 10.12 10.12 0 00-2.66 0l-6 .65zm19.17 2.87L23 41.11c-.37-3.56.05-6.17 1.24-7.86s3.28-2.67 6.24-3 5.13.28 6.52 1.75 2.22 3.91 2.59 7.44l.4 4-14.39 1.39.31 3q.43 4.22 2 5.92c1 1.13 2.76 1.58 5.19 1.32a10.34 10.34 0 003-.68 3.85 3.85 0 001.72-1.29 4 4 0 00.71-1.71 8.44 8.44 0 000-2.15l1.71-.24q.75 7.29-7 8.09c-3 .3-5.19-.23-6.71-1.58s-2.4-3.78-2.76-7.31zm1.62-5.44l12.31-1.27-.18-1.81a22.9 22.9 0 00-.58-3.41 8.15 8.15 0 00-1.1-2.41 3.75 3.75 0 00-2-1.48 7.67 7.67 0 00-3.12-.21c-2.43.25-4 1-4.81 2.35s-1 3.41-.71 6.3zm20.8 12.58l-2.57-26.09 2.25-.25L48 50.91l1.62-3.79 9.08-19.36 1.86-.19 2.57 26.1-2.25.22L58.76 32 56 38.37l-7.83 16.77zm0-34.56l2-.2a2.4 2.4 0 001.15 2.08 5.21 5.21 0 002.73.32 5 5 0 002.55-.83 2.47 2.47 0 00.69-2.27l2-.21q.34 4.66-5.1 5.2c-3.58.37-5.62-1-6-4.09zm20.5 22.98l-.66-7c-.33-3.57.12-6.18 1.36-7.81s3.32-2.59 6.24-2.87 4.87.16 6.2 1.28 2.16 3 2.52 5.56l-2.16.2a9.2 9.2 0 00-.56-2.22 4.84 4.84 0 00-1.08-1.63 3.89 3.89 0 00-1.89-1 8.6 8.6 0 00-2.84-.12q-3.52.33-4.74 2.23t-.8 6.15l.65 6.9a20.53 20.53 0 00.59 3.57 6.72 6.72 0 001.14 2.34 3.77 3.77 0 002 1.31 8.68 8.68 0 003.11.16 10.18 10.18 0 003-.67 3.77 3.77 0 001.75-1.39 4.79 4.79 0 00.74-1.93 13.13 13.13 0 00.06-2.58l2.15-.2c.26 2.76-.23 4.88-1.47 6.34s-3.26 2.33-6 2.6-5.08-.31-6.56-1.73-2.44-3.93-2.75-7.49zm20.93-1.86L87 34.66a15.32 15.32 0 01.4-5.95 5.84 5.84 0 012.43-3.32 10.65 10.65 0 014.64-1.31 12.9 12.9 0 013.76.13 5.9 5.9 0 012.73 1.37 6.91 6.91 0 011.84 2.94 19.63 19.63 0 01.93 4.78l.63 7.11q.48 5.39-1.32 7.81c-1.2 1.62-3.25 2.56-6.17 2.82a12.8 12.8 0 01-3.75-.14 5.84 5.84 0 01-2.72-1.36 6.81 6.81 0 01-1.84-2.9 19.79 19.79 0 01-.94-4.74zm2.23-.4a24.82 24.82 0 00.55 3.67 6.7 6.7 0 001.09 2.35 3.48 3.48 0 002 1.3 9.66 9.66 0 003.19.14q3.56-.32 4.68-2.22c.74-1.27 1-3.35.73-6.24l-.62-7a25.55 25.55 0 00-.42-3 9.43 9.43 0 00-.7-2.14 3.33 3.33 0 00-1.2-1.44 4.83 4.83 0 00-1.84-.67 10.43 10.43 0 00-2.67-.06 9.28 9.28 0 00-3 .69 3.8 3.8 0 00-1.74 1.57 6.23 6.23 0 00-.74 2.46 20.35 20.35 0 00.06 3.61zM110 49.75l-2.24-26.57 7.63-.65a8.19 8.19 0 015.59 1.18 6.14 6.14 0 012.34 4.76 8.24 8.24 0 01-.43 3.54 3.74 3.74 0 01-2.17 2.28 6.91 6.91 0 011.64.32 3.05 3.05 0 011.19.74 6.2 6.2 0 01.78 1 4.35 4.35 0 01.5 1.26 14 14 0 01.27 1.39c.06.41.12.93.17 1.57a11.16 11.16 0 01-.38 4.62 4.94 4.94 0 01-2.41 2.7 13 13 0 01-5.05 1.25zm1-15.37l5.17-.44a5.83 5.83 0 004-1.54 4.66 4.66 0 00.92-3.57 4.58 4.58 0 00-1.5-3.49 5.81 5.81 0 00-4-.73l-5.4.45zm1 13.1l5.12-.43a13.17 13.17 0 002.8-.49 6.18 6.18 0 001.74-.8 2.52 2.52 0 00.89-1.27 5.33 5.33 0 00.31-1.57q0-.75-.06-2a14.12 14.12 0 00-.32-2.46 4.15 4.15 0 00-.81-1.61 2.7 2.7 0 00-1.59-.91 9.48 9.48 0 00-2.63-.08l-6.39.54zm18.45.36l-2.07-26.27 2.25-.18.83 10.61 5.78-.46q8.31-.64 8.93 7.23c.21 2.73-.34 4.78-1.68 6.14s-3.34 2.14-6 2.35zm2.09-2.25l5.77-.45a6.48 6.48 0 004.48-1.76 5.8 5.8 0 001.13-4.48 5.9 5.9 0 00-1.81-4.3 6.51 6.51 0 00-4.71-1l-5.77.45zm18.93.6l-2.07-26.27 2.25-.18L153.72 46zm7.4-.56L157 19.35l2-.15 5.68 10.87 3.37 7 2.25-7.18 4.18-11.81 1.94-.14 1.9 26.29-2.25.16-.87-12-.4-9.25-6.2 17.79h-.71l-8.61-16.72 1 9.21.87 12zm24.44-1.92l-1.74-26.17 2.26-.15 1.45 22 1.72-3.78 9.46-19 1.87-.13 1.74 26.16-2.26.15-1.46-21.99-2.89 6.27-8.17 16.5zM215.43 35a7.28 7.28 0 01.79-4.08 6.08 6.08 0 012.83-2.52 16.83 16.83 0 014.64-1.25 37.43 37.43 0 016.27-.25l-.23-3.9q-.16-3.53-1.6-5c-1-1-2.48-1.44-4.54-1.32a10.84 10.84 0 00-2.49.39 4.29 4.29 0 00-1.72 1 3.65 3.65 0 00-1 1.91 11 11 0 00-.18 3.06l-2.16.13q-.25-4.23 1.5-6.27t6-2.28q4.07-.24 6.11 1.71c1.37 1.29 2.14 3.47 2.31 6.52l1 18-1.9.11-.25-3.5a7.15 7.15 0 01-3 3.1 11.68 11.68 0 01-4.61 1.08 8 8 0 01-5.5-1.39c-1.38-1.1-2.13-2.83-2.27-5.25zm2.26-.09a4.44 4.44 0 001.66 3.61 7.11 7.11 0 004.55.91 8.06 8.06 0 002.6-.57 5.81 5.81 0 001.88-1.21 6.75 6.75 0 001.17-1.63 6.94 6.94 0 00.62-1.79 7.28 7.28 0 00.11-1.74l-.2-3.42q-6.63-.29-9.61 1.07a4.48 4.48 0 00-2.78 4.8zm20.59 5.78l-1.38-26.63 7.65-.4A8.19 8.19 0 01250.1 15a6.09 6.09 0 012.18 4.83 8.17 8.17 0 01-.54 3.53 3.71 3.71 0 01-2.25 2.2 6.71 6.71 0 011.64.38 3 3 0 011.16.77 6.58 6.58 0 01.75 1 4.14 4.14 0 01.46 1.29c.11.52.18 1 .23 1.4s.08.93.11 1.57a11 11 0 01-.53 4.6 4.94 4.94 0 01-2.49 2.63 13 13 0 01-5.1 1.08zm1.47-15.33l5.18-.27c1.94-.1 3.29-.57 4.06-1.41a4.62 4.62 0 001-3.54 4.59 4.59 0 00-1.38-3.54 5.86 5.86 0 00-4-.86l-5.41.28zm.68 13.13l5.14-.27a12.69 12.69 0 002.81-.4 5.63 5.63 0 001.76-.74 2.47 2.47 0 00.94-1.24 5.3 5.3 0 00.35-1.56 19 19 0 000-2 14.56 14.56 0 00-.24-2.47 4.2 4.2 0 00-.75-1.63 2.68 2.68 0 00-1.56-1 9.4 9.4 0 00-2.63-.17l-6.41.34zm14.91-23.16l-.09-2.08 16.75-.78.1 2.08-7.25.33L266 39.13l-2.25.1L262.6 15zm20.12 13.74l-.29-7.25a15.62 15.62 0 01.68-5.93 5.8 5.8 0 012.6-3.19 10.56 10.56 0 014.69-1.09 12.84 12.84 0 013.75.31 5.88 5.88 0 012.66 1.5 6.94 6.94 0 011.7 3 19.73 19.73 0 01.69 4.83l.3 7.12c.14 3.6-.42 6.18-1.7 7.74s-3.37 2.4-6.3 2.52a12.77 12.77 0 01-3.74-.32 5.9 5.9 0 01-2.65-1.48 6.83 6.83 0 01-1.69-3 19.4 19.4 0 01-.7-4.76zm2.25-.28a24.79 24.79 0 00.37 3.68 6.58 6.58 0 001 2.41 3.41 3.41 0 001.92 1.39 9.85 9.85 0 003.18.3q3.57-.15 4.78-2t1-6.19l-.28-7a25.71 25.71 0 00-.27-3 9.92 9.92 0 00-.6-2.18 3.35 3.35 0 00-1.13-1.49 4.76 4.76 0 00-1.81-.76 9.77 9.77 0 00-2.66-.18 9.32 9.32 0 00-3 .54 3.75 3.75 0 00-1.81 1.49 6.1 6.1 0 00-.86 2.42 19.72 19.72 0 00-.12 3.6zm19.11-.7l-.5-14.61a26.4 26.4 0 01.06-3.13 22.26 22.26 0 01.33-2.47 7.5 7.5 0 01.63-1.88 11.48 11.48 0 01.82-1.42 4 4 0 011.06-1 11.62 11.62 0 011.16-.68 5.51 5.51 0 011.28-.41c.52-.12 1-.2 1.32-.25l1.47-.24.9-.12.9-.11c.17 0 .43-.07.78-.14a3.31 3.31 0 00.82-.23l.68-.32a3.11 3.11 0 00.69-.47 5.22 5.22 0 00.58-.61l1.49 1.54a6.3 6.3 0 01-2 1.55 7.14 7.14 0 01-2.06.73l-2.33.35-1.32.2c-.26 0-.66.11-1.19.22a3.8 3.8 0 00-1.3.46 4 4 0 00-.9.76c-1.19 1.33-1.73 3.86-1.6 7.59v1.24a5.21 5.21 0 012.5-2.34 9.07 9.07 0 013.52-.81q4.49-.16 6.52 2.12t2.23 7.83l.22 6.35c.12 3.46-.47 6-1.76 7.57s-3.39 2.43-6.31 2.53a12.91 12.91 0 01-3.72-.33 5.7 5.7 0 01-2.64-1.49 6.8 6.8 0 01-1.69-3 20.67 20.67 0 01-.64-4.98zm2.26 0c.1 2.95.59 5 1.47 6.07s2.52 1.6 4.92 1.51 4-.7 4.81-1.87 1.17-3.18 1.07-6l-.22-6.26q-.13-4.54-1.48-6.2t-4.93-1.6a6.21 6.21 0 00-4.58 1.71c-1 1.07-1.39 2.85-1.31 5.34zm16.99-17.27l2.5-.07 3.32 10.58 3.81 12.16h.05l2.67-12.32L331 10.4l2.5-.07L325.7 42q-.87 3.56-2.9 4.7t-5.55.13l.73-2c1.63.5 2.84.52 3.62.07a5.11 5.11 0 001.87-3.08l1.09-4.71zm20.79 16.09l-.15-7c-.08-3.59.56-6.15 1.91-7.7s3.5-2.34 6.44-2.4 4.85.51 6.08 1.72 1.95 3.11 2.12 5.72l-2.17.05a9.17 9.17 0 00-.4-2.26 4.92 4.92 0 00-.95-1.7 3.87 3.87 0 00-1.82-1.12 9 9 0 00-2.82-.33c-2.37.05-4 .68-4.89 1.88s-1.3 3.23-1.21 6.04l.14 6.93a20.49 20.49 0 00.33 3.57 6.66 6.66 0 001 2.42 3.72 3.72 0 001.89 1.45 8.67 8.67 0 003.09.39 10.28 10.28 0 003.06-.46 3.71 3.71 0 001.84-1.25 4.65 4.65 0 00.87-1.87 12.19 12.19 0 00.25-2.57l2.17-.05c.06 2.78-.59 4.85-1.93 6.22s-3.42 2.09-6.21 2.15-5-.67-6.42-2.19-2.15-4.07-2.22-7.64zm20.76 2.5a7.34 7.34 0 011-4 6 6 0 012.91-2.41 16.69 16.69 0 014.7-1 35.4 35.4 0 016.26 0l-.05-4c0-2.36-.46-4-1.38-5.09s-2.41-1.55-4.48-1.52a11.22 11.22 0 00-2.5.28 4.4 4.4 0 00-1.77.91 3.73 3.73 0 00-1.1 1.87 10.93 10.93 0 00-.32 3h-2.17q0-4.23 1.78-6.19t6.05-2c2.72 0 4.74.62 6 2s2 3.56 2 6.62l.24 18L373 36l-.09-3.5a7.25 7.25 0 01-3.11 3 11.48 11.48 0 01-4.65.87 8.05 8.05 0 01-5.44-1.62q-2.03-1.75-2.09-5.34zm2.26 0a4.48 4.48 0 001.51 3.68 7.08 7.08 0 004.5 1.11 7.84 7.84 0 002.63-.46 5.67 5.67 0 001.92-1.13 6.36 6.36 0 001.25-1.57 6.43 6.43 0 00.69-1.76 6.85 6.85 0 00.19-1.73l-.05-3.43c-4.4-.38-7.62-.17-9.64.65a4.5 4.5 0 00-3 4.65zm20.49 6.48l-.13-26.35h2l4.95 11.22 2.87 7.24 2.73-7 5-11.5h1.95l.12 26.35h-2.25l-.06-12 .22-9.26-7.35 17.33h-.7l-7.51-17.32.36 9.25.06 12zm24.53-.27L405 9.4h2.26l-.1 22 2-3.6 10.76-18.34h1.87l-.11 26.22h-2.26l.1-22-3.32 6.06-9.32 15.88z" data-name="Слой 1"/></g></symbol><symbol viewBox="0 0 726.45 111.59" id="bus-label-mobile" xmlns="http://www.w3.org/2000/svg"><g data-name="Layer 2"><path d="M9.87 98.71L0 40.46l14-2.38a23.66 23.66 0 016.34-.37 9.79 9.79 0 014.71 1.74A10.5 10.5 0 0128.59 44a34.76 34.76 0 012.19 8l.86 5.08a26.12 26.12 0 01.13 10.16 9.73 9.73 0 01-3.65 5.85 18.19 18.19 0 01-7.66 2.79l-10 1.7L13.89 98zM9.81 74l10-1.7q6-1 7.62-4.17t.43-10.31L27.07 53A43.52 43.52 0 0026 48.08a15.21 15.21 0 00-1.42-3.44 5.93 5.93 0 00-2.22-2.28 8.49 8.49 0 00-3.19-.92 16.5 16.5 0 00-4.49.25l-10 1.7zm32.72 2.84L40.64 65Q39.21 56.08 42 51.65T52.24 46q7.38-1.17 11 2.24t5.06 12.3l1 6.61L45.31 71l.79 5q1.13 7.06 3.87 9.79t8.87 1.75a17.79 17.79 0 005-1.43 6.54 6.54 0 002.75-2.38 6.87 6.87 0 001-2.94 13.45 13.45 0 00-.17-3.64l2.92-.46q2 12.21-11 14.27-7.44 1.19-11.45-2t-5.36-12.12zm2.23-9.32l20.63-3.28-.49-3a37.44 37.44 0 00-1.31-5.73 13.12 13.12 0 00-2.08-3.95A6.31 6.31 0 0058 49.25a13.22 13.22 0 00-5.28-.07q-6.11 1-7.89 4.41c-1.18 2.29-1.38 5.84-.61 10.68zM81 86.81L74.51 43l3.77-.56 5.44 36.71 2.43-6.52 13.69-33.39 3.13-.46 6.5 43.76-3.78.56-5.44-36.7-4.12 11-11.81 28.91zm-2.83-58.26l3.42-.55c.27 1.78 1 2.92 2.11 3.41a8.55 8.55 0 004.62.32 8.27 8.27 0 004.27-1.57c.9-.79 1.22-2.08 1-3.89l3.41-.51q1 7.83-8.18 9.19t-10.68-6.4zm36.51 37.06l-1.61-11.77q-1.25-9 1.72-13.27t10.31-5.28q7.08-1 10.54 1.7t4.67 9.19l-3.63.5a16.92 16.92 0 00-1.09-3.68 8.41 8.41 0 00-2-2.69 6.37 6.37 0 00-3.25-1.53 14.87 14.87 0 00-4.8 0c-4 .54-6.56 1.91-7.83 4.1s-1.56 5.67-.91 10.42l1.59 11.6a35.31 35.31 0 001.24 5.93 11.26 11.26 0 002.1 3.86 6.25 6.25 0 003.46 2.06 15 15 0 005.26.06 17.42 17.42 0 005-1.36 6.35 6.35 0 002.92-2.45 8.07 8.07 0 001.1-3.3 19.87 19.87 0 00-.09-4.36l3.63-.5q1 7-2 10.8t-10 4.8q-7.29 1-11.19-2.42t-5.14-12.41zM149.92 61l-1.52-12.16a26 26 0 01.32-10.06 9.88 9.88 0 013.87-5.78 18 18 0 017.74-2.49 21.8 21.8 0 016.35 0 10 10 0 014.69 2.15 11.82 11.82 0 013.28 4.84 33.82 33.82 0 011.85 8l1.5 11.94q1.13 9-1.76 13.25T166 75.81a21.66 21.66 0 01-6.33 0 9.78 9.78 0 01-4.67-2.12 11.57 11.57 0 01-3.27-4.79 33.41 33.41 0 01-1.81-7.9zm3.74-.79a42.83 42.83 0 001.15 6.14 11 11 0 002 3.9 5.79 5.79 0 003.43 2.08 16.74 16.74 0 005.38 0c4-.5 6.57-1.84 7.76-4s1.47-5.71.87-10.56L172.77 46a45.75 45.75 0 00-.88-5.06 16.85 16.85 0 00-1.3-3.58 5.61 5.61 0 00-2.14-2.36 8.32 8.32 0 00-3.14-1 17.38 17.38 0 00-4.5.07 15.77 15.77 0 00-5 1.34 6.37 6.37 0 00-2.81 2.76 10.19 10.19 0 00-1.1 4.19 33.3 33.3 0 00.31 6.07zm34.4 12.7l-5-44.71 12.85-1.45q5.94-.66 9.48 1.72t4.16 7.92a13.7 13.7 0 01-.56 6 6.24 6.24 0 01-3.55 3.93 11 11 0 012.79.48 5.08 5.08 0 012 1.18 11.12 11.12 0 011.36 1.62 7.48 7.48 0 01.9 2.12c.24.86.41 1.64.53 2.33s.23 1.57.35 2.63a19.06 19.06 0 01-.42 7.81 8.35 8.35 0 01-3.95 4.68 22.12 22.12 0 01-8.42 2.34zm.92-26l8.71-1c3.25-.37 5.49-1.3 6.7-2.79a7.88 7.88 0 001.39-6.06c-.32-2.84-1.22-4.79-2.69-5.82s-3.74-1.39-6.79-1l-9.08 1zM191.45 69l8.64-1a23.46 23.46 0 004.69-1 10.16 10.16 0 002.89-1.44 4.28 4.28 0 001.46-2.17 9.26 9.26 0 00.43-2.67c0-.85-.06-2-.19-3.43a22.32 22.32 0 00-.66-4.14 6.89 6.89 0 00-1.43-2.68 4.51 4.51 0 00-2.69-1.39 15.8 15.8 0 00-4.45 0l-10.76 1.21zm31.14-.25l-4.24-44.27 3.8-.37 1.7 17.78 9.74-.89q14-1.34 15.28 11.94.66 6.9-2.66 10.4t-10.12 4.15zm3.46-3.87l9.73-.93c3.51-.33 6-1.37 7.52-3.09s2.08-4.26 1.76-7.59-1.38-5.79-3.18-7.2-4.45-2-8-1.61l-9.73.93zm32 .47l-4.26-44.27 3.79-.36L261.82 65zm12.43-1.08l-3.37-44.34 3.35-.26L280.12 38l5.73 11.78 3.74-12.15 7-19.94 3.28-.25 3.37 44.34-3.8.29-1.55-20.23-.73-15.61-10.29 30.05-1.2.09L271 28.21l1.71 15.54L274.28 64zm41.26-3.33l-2.5-44.18 3.81-.21 2.09 37.05 2.94-6.27 16.29-32 3.16-.18L340 59.33l-3.8.21-2.1-37-5 10.54-14 27.67zm54.63-13.85a12.22 12.22 0 011.63-6.82 10.11 10.11 0 014.91-4.1 28.23 28.23 0 017.9-1.84 62.18 62.18 0 0110.57-.06l-.16-6.63c0-4-.85-6.82-2.41-8.56s-4.1-2.56-7.59-2.48a20 20 0 00-4.22.51 7.3 7.3 0 00-3 1.58 6.26 6.26 0 00-1.83 3.16 18.61 18.61 0 00-.48 5.15l-3.66.09q-.17-7.14 2.88-10.48t10.19-3.52q6.87-.16 10.22 3.23t3.52 11.13l.8 30.38-3.21.07-.25-5.9a12 12 0 01-5.19 5 19.69 19.69 0 01-7.83 1.56q-5.82.13-9.2-2.65t-3.59-8.82zm3.81 0q.1 4.27 2.62 6.18c1.67 1.28 4.21 1.87 7.61 1.79a13.1 13.1 0 004.42-.82 9.77 9.77 0 003.23-1.94 10.94 10.94 0 002.07-2.67 11.49 11.49 0 001.15-3 12.55 12.55 0 00.28-2.93l-.14-5.78q-11.16-.86-16.27 1.26t-5 7.9zM404.59 58V13h12.93q6 0 9.23 2.77c2.15 1.85 3.24 4.62 3.26 8.33a13.79 13.79 0 01-1.23 5.9 6.3 6.3 0 01-4 3.51 10.72 10.72 0 012.72.78 5 5 0 011.89 1.4 10.36 10.36 0 011.2 1.79 7.42 7.42 0 01.66 2.21q.21 1.32.27 2.37c0 .7.05 1.58.05 2.65a19 19 0 01-1.29 7.72 8.34 8.34 0 01-4.43 4.2 22 22 0 01-8.69 1.37zm3.81-3.51h8.69a21.83 21.83 0 004.77-.43 9.76 9.76 0 003-1.1 4.28 4.28 0 001.73-2 8.93 8.93 0 00.73-2.59c.1-.85.16-2 .19-3.44a21.76 21.76 0 00-.19-4.19A6.91 6.91 0 00426.2 38a4.54 4.54 0 00-2.55-1.76 16 16 0 00-4.42-.5H408.4zm0-22.2h8.77q4.9 0 7-2a7.83 7.83 0 002.06-5.87c0-2.86-.67-4.9-2-6.09s-3.56-1.8-6.63-1.8h-9.13zm27.92-15.48l.09-3.52 28.31.7-.08 3.52-12.26-.31-1 41-3.81-.1 1-40.94zm32.61 25.61l.66-12.24a26 26 0 012.09-9.84 9.81 9.81 0 014.87-5 18 18 0 018-1.09 22.21 22.21 0 016.26 1.12 10.07 10.07 0 014.19 2.94 11.74 11.74 0 012.38 5.35 33.76 33.76 0 01.4 8.22l-.65 12q-.48 9.1-4.07 12.73t-11 3.22a21.33 21.33 0 01-6.23-1.12 9.79 9.79 0 01-4.22-2.92 11.41 11.41 0 01-2.37-5.29 32.63 32.63 0 01-.31-8.08zm3.82-.12a40.62 40.62 0 000 6.24 11.24 11.24 0 001.26 4.2 5.84 5.84 0 003 2.65 16.48 16.48 0 005.29 1c4 .21 6.78-.66 8.35-2.59s2.48-5.35 2.73-10.24l.62-11.89a44.07 44.07 0 000-5.14 17 17 0 00-.66-3.75 5.64 5.64 0 00-1.66-2.69 8.37 8.37 0 00-2.91-1.56 18.08 18.08 0 00-4.44-.73 15.15 15.15 0 00-5.15.44 6.27 6.27 0 00-3.28 2.2 10.3 10.3 0 00-1.83 3.94 32.74 32.74 0 00-.77 6zm32.72 1.99l2.24-24.56a45.88 45.88 0 01.75-5.22 38.69 38.69 0 011.07-4.07 12.44 12.44 0 011.46-3 19.69 19.69 0 011.66-2.19 6.6 6.6 0 012-1.47 16.05 16.05 0 012.09-.9 9.89 9.89 0 012.26-.43c.9-.08 1.66-.13 2.27-.13h5.57a12.66 12.66 0 001.33-.06 6.49 6.49 0 001.42-.26l1.2-.39A4.59 4.59 0 00532 1a8.09 8.09 0 001.11-1l2.16 2.9a10.48 10.48 0 01-3.68 2.17 11.72 11.72 0 01-3.6.78L524 6h-2.23a15.19 15.19 0 00-2 .11 6.56 6.56 0 00-2.27.5 6.83 6.83 0 00-1.67 1.08q-3.42 3-4.28 12.37l-.19 2.09a8.81 8.81 0 014.64-3.39 15.4 15.4 0 016.07-.62q7.53.67 10.47 4.93t2 13.58l-1 10.67q-.8 8.74-4.54 12.32t-11 2.9a21.81 21.81 0 01-6.18-1.33 9.84 9.84 0 01-4.1-3.05 11.52 11.52 0 01-2.1-5.46 34.8 34.8 0 01-.15-8.41zm3.79.42q-.69 7.44 1.18 10.47c1.25 2 3.88 3.21 7.91 3.57s6.84-.34 8.45-2.12 2.62-5.08 3.06-9.89l1-10.53q.67-7.41-1.2-10.56c-1.25-2.11-3.89-3.34-7.91-3.71-3.53-.32-6.19.31-8 1.9s-2.91 4.47-3.31 8.66zM543 19.68l4.18.55 2.67 18.52 3.08 21.3h.07l7.78-19.81L568 23l4.18.56-21.59 50.63q-2.42 5.67-6.09 7T535.21 80l1.79-3.16q3.88 1.91 6 1.08c1.42-.55 2.73-2.09 4-4.62l3-7.54zm30.89 32.61l2.16-11.68q1.65-8.94 5.8-12.06t11.45-1.78q7 1.29 9.47 4.92t1.55 10.19l-3.6-.67a16.17 16.17 0 00.1-3.87 8.27 8.27 0 00-1-3.13 6.43 6.43 0 00-2.61-2.48 15.24 15.24 0 00-4.55-1.51q-5.89-1.08-8.72 1.44c-1.89 1.69-3.26 4.89-4.14 9.62l-2.12 11.51a34.57 34.57 0 00-.68 6 11.18 11.18 0 00.79 4.32 6.3 6.3 0 002.63 3 14.74 14.74 0 005 1.7 16.82 16.82 0 005.2.29 6.38 6.38 0 003.48-1.44 8 8 0 002.08-2.79 20.94 20.94 0 001.28-4.17l3.61.66q-1.29 6.92-5.32 9.63t-11 1.42q-7.23-1.34-9.85-5.81t-1.01-13.31zM608 63.78a12.37 12.37 0 013.36-6.14 10.1 10.1 0 015.83-2.64 27.87 27.87 0 018.1.36 61.12 61.12 0 0110.2 2.8l1.64-6.42q1.54-5.76 0-8.9c-1-2.09-3.25-3.57-6.64-4.43a18.1 18.1 0 00-4.2-.65 7.25 7.25 0 00-3.27.71A6.25 6.25 0 00620.4 41a18.37 18.37 0 00-1.81 4.86L615 45q1.77-6.91 5.61-9.31t10.74-.69c4.45 1.14 7.44 3.09 9 5.88s1.66 6.67.38 11.66L633.19 82l-3.11-.79 1.39-5.75a12.09 12.09 0 01-6.37 3.45 19.49 19.49 0 01-8-.62q-5.62-1.42-8.14-5t-.96-9.51zm3.68 1q-1.06 4.14.84 6.66t6.84 3.78a13.26 13.26 0 004.48.41 9.6 9.6 0 003.63-1 10.51 10.51 0 002.72-2 11.33 11.33 0 001.91-2.55 12.75 12.75 0 001.07-2.75l1.43-5.6q-10.51-3.84-16-3.19t-6.92 6.26zm30.53 19.78l15-41.87 3.17 1.13 1.36 20.66.43 13.09 8.36-9.57L685 52.63l3.1 1.11-15 41.86-3.54-1.25 6.84-19.11 5.69-14.55-21.66 23.25-1.12-.4-1.89-31.68-4.78 14.88-6.84 19.1zm38.98 14.27l20-39.46 3.4 1.72-16.79 33.1 5.69-4 30.14-19.49 2.82 1.43-20 39.46-3.4-1.72 16.79-33.1-9.59 6.62-26.07 16.9z" data-name="Layer 1"/></g></symbol><symbol viewBox="0 0 236.91 126.68" id="bus-mobile" xmlns="http://www.w3.org/2000/svg"><defs><style>.dcls-2{fill:#fff}.dcls-3{fill:#2c2004}</style></defs><g id="dLayer_2" data-name="Layer 2"><g id="dLayer_1-2" data-name="Layer 1"><path d="M233.53 50.78l-.05-.14-16.36-38.56A20 20 0 00194.91.37L35.65 32.5a19.8 19.8 0 00-15.57 22.78l-14.89 3c-3.66.74-5.87 4.6-5 8.78s4.38 6.91 8 6.17l3.81-.77a8.36 8.36 0 001.45 11.74 7.64 7.64 0 001.07.71l-3.82.77c-3.67.74-5.87 4.61-5 8.81s4.37 6.88 8 6.14l14.89-3 1.79 8.9A19.8 19.8 0 0053.68 122l13.71-2.78a18 18 0 0032.12-6.48L176 97.3a18 18 0 0032.11-6.47L221 88.22a19.81 19.81 0 0015.51-23.3L233.91 52a8 8 0 00-.38-1.22zm-151 60.61a2.71 2.71 0 112.12-3.2 2.73 2.73 0 01-2.11 3.2zm108.63-21.92a2.71 2.71 0 11-1.08-5.32 2.71 2.71 0 011.08 5.32z" fill="#ffdc2f"/><path class="dcls-2" d="M192.76 10.68l17.15 39.54a2.68 2.68 0 003 1.59l10-2 1.78-.36.66-.13-12.06-28.84c-3-7.08-8.93-12.45-16.42-10.94l-4.23.86z"/><path class="dcls-2" d="M226.72 55.59l-2.53.51-10 2a9.21 9.21 0 01-10.28-5.33l-17.14-39.66-.24-.6-.28-.64-.07-.18L32.85 42.63a6.64 6.64 0 00-5.16 7.77l2.8 13.88 4.62-.93 1.49 7.39-4.6.93L33.26 78l4.61-.93 1.49 7.38-4.61.94.59 2.91 4.66-.95 3.25 16.1a9.41 9.41 0 0011 7.39h.11L66 108.49a16 16 0 0131.77-2.92 4.62 4.62 0 00.11.63l77.2-15.57a3.56 3.56 0 00-.14-.63 16 16 0 1131.46-6.34 4.62 4.62 0 00.11.63l9.36-1.89a16.61 16.61 0 0012.94-19.48l-1.5-7.42zM85.28 78.71l-6.94 1.4-3.58-17.73 7-1.4zm17.24-3.49l-6.94 1.4L92 58.9l7-1.4zm24-16.21a10.09 10.09 0 01-9.43-8.01l-1.42-7a2.32 2.32 0 011.8-2.74l5 5a.17.17 0 00-.12.18l.71 3.51a4 4 0 004.22 3.18zm38.27-21.75c-4.32.87-7.55 4.33-7.66 8.15a.3.3 0 00.33.09l6.54 3.72-11.19 2.26a2.36 2.36 0 01-1.9-.46 2.25 2.25 0 01-.81-1.76c-.06-8.48 5.62-15.77 13.56-17.38z"/><path class="dcls-3" d="M125.61 53.47l-.92.19a4 4 0 01-4.26-3.18l-.7-3.47a.14.14 0 01.09-.17l7.53-1.52a.14.14 0 01.17.1l.7 3.47a3.94 3.94 0 01-2.61 4.58zm8.61-5.89l-1.42-7a2.36 2.36 0 00-2.8-1.82l-15.1 3a2.36 2.36 0 00-1.83 2.75l1.43 7.06a10.08 10.08 0 009.46 8l1.88 9.34-4.94 1a2 2 0 00-1.53 2.34l.16.82a2 2 0 002.32 1.57l14.55-2.94a2 2 0 001.5-2.31l-.16-.81a2 2 0 00-2.35-1.58l-4.91 1-1.88-9.35a10.07 10.07 0 005.6-11.08zM73.82 79.4a1.48 1.48 0 00-1.12 1.73l.38 1.87a1.46 1.46 0 001.7 1.16l29.94-6a1.47 1.47 0 001.15-1.73l-.38-1.89a1.49 1.49 0 00-1.73-1.15l-4 .8-2.9-14.63L100 59a1.69 1.69 0 001.33-2 1.74 1.74 0 00-.44-.85l-7.25-7.76a1.72 1.72 0 00-2.43 0 1.69 1.69 0 00-.41.61l-3.72 10a1.69 1.69 0 001.86 2.28l3.1-.63L95 75.18l-12.38 2.48-2.94-14.58 3.06-.62a1.69 1.69 0 001.35-2 1.72 1.72 0 00-.42-.84l-7.29-7.75a1.72 1.72 0 00-2.43 0 1.69 1.69 0 00-.41.61l-3.72 10a1.7 1.7 0 002 2.25l3.06-.62 2.94 14.59zm80.66-33.33h-.32c.1-3.87 3.33-7.28 7.65-8.16s8.59 1 10.18 4.56a.33.33 0 01-.27.17zm16.68 18.54l.78-.16a7.1 7.1 0 005.41-8.45 2.36 2.36 0 10-4.67.68 2.21 2.21 0 000 .25 2.38 2.38 0 01-1.68 2.9l-.78.16a2.38 2.38 0 01-2.7-2l-1.84-9.12 12.62-2.55a2.23 2.23 0 001.79-2.59 2.54 2.54 0 00-.14-.47c-3.23-7.84-11.33-12.35-19.23-10.76s-13.61 8.9-13.55 17.38a2.21 2.21 0 00.81 1.75 2.3 2.3 0 001.86.44l11.22-2.27 1.84 9.13a7.09 7.09 0 008.26 5.68zM27.18 68.22l.82 4.21-11.68 2.36c-1.22.24-1.93 1.85-1.57 3.62s1.63 2.94 2.84 2.69l38.07-7.68c1.22-.24 1.94-1.85 1.59-3.58s-1.64-3-2.86-2.73l-20.48 4.11-.85-4.22zm25.33 16.83c-.35-1.74-1.63-3-2.85-2.73l-13 2.62-.88-4.36-5.87 1.19.88 4.36L11.59 90c-1.22.24-1.93 1.89-1.58 3.62s1.63 2.94 2.85 2.69l38.05-7.68c1.22-.24 1.93-1.85 1.58-3.58zm136.71-5.22a7.12 7.12 0 11-5.6 8.39 7.12 7.12 0 015.6-8.39zm4.09 20.27a13.58 13.58 0 10-16-10.61 13.56 13.56 0 0016 10.61zm-109.9 15.6a7.12 7.12 0 115.59-8.38 7.14 7.14 0 01-5.59 8.38zm-4.1-20.3a13.58 13.58 0 1016 10.64 13.59 13.59 0 00-16-10.64zM176 92.84a15.34 15.34 0 01-.89-2.89 15.85 15.85 0 01-.31-3.44l-78.32 15.8a14.7 14.7 0 011 3.29 16.86 16.86 0 01.3 3z"/><path class="dcls-3" d="M197.05 11a9 9 0 0110.06 5.31l14.8 34.91-11.82 2.38A2.74 2.74 0 01207 52l-17-39.57zM24.49 54.92l.77 3.81-19.2 3.87c-1.22.25-1.93 1.85-1.58 3.59s1.64 3 2.86 2.73l38.06-7.7c1.22-.22 1.94-1.85 1.6-3.62s-1.63-2.94-2.85-2.69l-13 2.62-.69-3.43A9.41 9.41 0 0137.81 43l145.63-29.37 17.7 40.89a9.21 9.21 0 0010.23 5.36l12.54-2.54 1.87 9.27.08.41v.76a9 9 0 01-.68 4.83H225a9.49 9.49 0 01-6.12 5.08h-.12L205 80.46a17.33 17.33 0 011 3.29 16.86 16.86 0 01.3 3L220 84a15.39 15.39 0 0012.27-18 1.42 1.42 0 010-.2l-2.61-12.93a4.82 4.82 0 00-.2-.61l-16.4-38.45a15.54 15.54 0 00-17.29-9.12L36.52 36.82a15.39 15.39 0 00-12 18.1zm39.18 54.01l-12.11 2.44h-.07a9.41 9.41 0 01-11-7.39l-1.9-9.45-5.87 1.19 2 9.93a15.37 15.37 0 0018.1 12l14.52-2.92a16 16 0 01-.9-2.9 15.22 15.22 0 01-.27-3.44z"/><path class="dcls-3" d="M209.58 38.22a3.55 3.55 0 01-4-2.08l-3.85-8.92-6.5 1.31a3.57 3.57 0 11-1.41-7l9.34-1.89a3.59 3.59 0 014 2.08l5 11.59A3.57 3.57 0 01210.3 38a2.61 2.61 0 01-.72.22z"/></g></g></symbol><symbol viewBox="0 0 84.96 41.33" id="bus-sm" xmlns="http://www.w3.org/2000/svg"><defs><style>.ecls-2{fill:#fff}.ecls-3{fill:#18120e}</style></defs><g id="eLayer_2" data-name="Layer 2"><g id="eСлой_1" data-name="Слой 1"><path d="M78.17 34.6H6.46a4.88 4.88 0 01-4.88-4.88V5.81A4.89 4.89 0 016.46.93h4.74l.8 8.59a5.15 5.15 0 005.1 4.68l56.16.23 1.58 6.41a4.35 4.35 0 003.53 3.26l5.1.24.23 5.41a5.54 5.54 0 01-5.53 4.85z" fill="#ffdb2e" fill-rule="evenodd"/><circle class="ecls-2" cx="21.33" cy="34.81" r="5.38"/><path class="ecls-3" d="M21.33 41.33a6.53 6.53 0 116.52-6.52 6.53 6.53 0 01-6.52 6.52zm0-10.76a4.24 4.24 0 104.24 4.24 4.24 4.24 0 00-4.24-4.24z"/><circle class="ecls-2" cx="66.49" cy="34.81" r="5.38"/><path class="ecls-3" d="M66.49 41.33A6.53 6.53 0 1173 34.81a6.53 6.53 0 01-6.51 6.52zm0-10.76a4.24 4.24 0 104.23 4.24 4.24 4.24 0 00-4.23-4.24z"/><path class="ecls-3" d="M78.67 36.13h-3.31a1.14 1.14 0 110-2.28h3.31a4 4 0 004-4v-5L78.2 6.57c-.74-2.88-2.2-4.29-4.64-4.29H6.29a4 4 0 00-4 4v23.56a4 4 0 004 4h6.46a1.14 1.14 0 010 2.28H6.29A6.29 6.29 0 010 29.84V6.29A6.29 6.29 0 016.29 0h67.27c3.44 0 5.87 2.14 6.85 6l4.52 18.41a1.24 1.24 0 010 .27v5.15a6.29 6.29 0 01-6.26 6.3z"/><path class="ecls-3" d="M57.7 36.13H30.43a1.14 1.14 0 010-2.28H57.7a1.14 1.14 0 010 2.28zm15.35-20.27H18.1a8.38 8.38 0 01-8.37-8.37V1.14A1.14 1.14 0 0110.87 0h59.25a1.15 1.15 0 011.12.9l2.93 13.58a1.18 1.18 0 01-.23 1 1.15 1.15 0 01-.89.38zM12 2.28v5.21a6.09 6.09 0 006.09 6.09h53.55L69.2 2.28z"/><path class="ecls-3" d="M83.64 25h-6.12a4.29 4.29 0 01-4.16-3.37L69 1.38a1.14 1.14 0 01.22-1 1.18 1.18 0 01.9-.38h3.65a6.58 6.58 0 016.4 5l4.58 18.62a1.16 1.16 0 01-.21 1 1.14 1.14 0 01-.9.38zM71.53 2.28l4.06 18.91a2 2 0 001.93 1.57h4.66L78 5.56a4.29 4.29 0 00-4.18-3.28z"/></g></g></symbol><symbol viewBox="0 0 57.39 54.21" id="clock" xmlns="http://www.w3.org/2000/svg"><defs><style>.fcls-1{fill:#ffdb2e;stroke:#18120e;stroke-linecap:round;stroke-linejoin:round;stroke-width:1.73px}.fcls-2{stroke:#000;stroke-miterlimit:10;stroke-width:.42px}</style></defs><g id="fLayer_2" data-name="Layer 2"><g id="fСлой_1" data-name="Слой 1"><circle class="fcls-1" cx="28.7" cy="26.83" r="21.04"/><path class="fcls-1" d="M28.7 9.74V5.79m0 42.08v-3.94m17.09-17.1h3.95m-42.08 0h3.94m31.72-14.39l-1.14 1.14M15.23 40.53l-1.14 1.14m29.23-29.23l-1.14 1.14M15.23 40.53l-1.14 1.14m0-29.23l1.14 1.14m26.95 26.95l1.14 1.14"/><path class="fcls-2" d="M57 24.66a.66.66 0 00-.92 0l-.75.75a26.67 26.67 0 00-53.1-1.77.65.65 0 101.29.16A25.37 25.37 0 0154 25.25l-.59-.59a.65.65 0 00-.92.93l1.79 1.78.07.05a.48.48 0 00.14.09.53.53 0 00.25 0 .56.56 0 00.25 0 1.1 1.1 0 00.14-.09l.07-.05 1.8-1.78a.65.65 0 000-.93zM.4 29.55a.66.66 0 00.92 0l.76-.75a26.67 26.67 0 0053.1 1.77.65.65 0 10-1.29-.16A25.37 25.37 0 013.39 29l.59.59a.66.66 0 00.92 0 .67.67 0 000-.93l-1.79-1.82-.11-.05a.67.67 0 00-.14-.09.53.53 0 00-.25-.05.56.56 0 00-.25.05 1.1 1.1 0 00-.14.09l-.07.05L.4 28.62a.67.67 0 000 .93z"/><path class="fcls-1" d="M28.7 13.58v13.25l7.52-7.52"/></g></g></symbol><symbol viewBox="0 0 512 384" id="email" xmlns="http://www.w3.org/2000/svg"><path d="M502.3 126.8c3.9-3.1 9.7-.2 9.7 4.7V336c0 26.5-21.5 48-48 48H48c-26.5 0-48-21.5-48-48V131.6c0-5 5.7-7.8 9.7-4.7 22.4 17.4 52.1 39.5 154.1 113.6 21.1 15.4 56.7 47.8 92.2 47.6 35.7.3 72-32.8 92.3-47.6 102-74.1 131.6-96.3 154-113.7zM256 256c23.2.4 56.6-29.2 73.4-41.4 132.7-96.3 142.8-104.7 173.4-128.7 5.8-4.5 9.2-11.5 9.2-18.9V48c0-26.5-21.5-48-48-48H48C21.5 0 0 21.5 0 48v19c0 7.4 3.4 14.3 9.2 18.9 30.6 23.9 40.7 32.4 173.4 128.7 16.8 12.2 50.2 41.8 73.4 41.4z" fill="#999"/></symbol><symbol viewBox="0 0 450 449" id="inst" xmlns="http://www.w3.org/2000/svg"><path d="M225.1 110c-63.6 0-114.9 51.3-114.9 114.9 0 63.6 51.3 114.9 114.9 114.9 63.6 0 114.9-51.3 114.9-114.9 0-63.6-51.3-114.9-114.9-114.9zm0 189.6c-41.1 0-74.7-33.5-74.7-74.7s33.5-74.7 74.7-74.7 74.7 33.5 74.7 74.7-33.6 74.7-74.7 74.7zm146.4-194.3c0 14.9-12 26.8-26.8 26.8-14.9 0-26.8-12-26.8-26.8s12-26.8 26.8-26.8 26.8 12 26.8 26.8zm76.1 27.2c-1.7-35.9-9.9-67.7-36.2-93.9-26.2-26.2-58-34.4-93.9-36.2-37-2.1-147.9-2.1-184.9 0C96.8 4.1 65 12.3 38.7 38.5c-26.3 26.2-34.4 58-36.2 93.9-2.1 37-2.1 147.9 0 184.9 1.7 35.9 9.9 67.7 36.2 93.9 26.3 26.2 58 34.4 93.9 36.2 37 2.1 147.9 2.1 184.9 0 35.9-1.7 67.7-9.9 93.9-36.2 26.2-26.2 34.4-58 36.2-93.9 2.1-37 2.1-147.8 0-184.8zM399.8 357c-7.8 19.6-22.9 34.7-42.6 42.6-29.5 11.7-99.5 9-132.1 9-32.6 0-102.7 2.6-132.1-9-19.6-7.8-34.7-22.9-42.6-42.6-11.7-29.5-9-99.5-9-132.1 0-32.6-2.6-102.7 9-132.1C58.2 73.2 73.3 58.1 93 50.2c29.5-11.7 99.5-9 132.1-9 32.6 0 102.7-2.6 132.1 9 19.6 7.8 34.7 22.9 42.6 42.6 11.7 29.5 9 99.5 9 132.1 0 32.6 2.7 102.7-9 132.1z" fill="#FFF"/></symbol><symbol viewBox="0 0 134.41 81.43" id="logo" xmlns="http://www.w3.org/2000/svg"><defs><style>.icls-2{fill:#fff;fill-rule:evenodd}.icls-3{fill:#1d1d1b}</style></defs><g id="iLayer_2" data-name="Layer 2"><g id="iСлой_1" data-name="Слой 1"><path d="M127.55 31.37v-.09l-4.64-22.55A11 11 0 00112.21 0H22.88A10.88 10.88 0 0012 10.58H3.66A3.91 3.91 0 000 14.77 3.92 3.92 0 003.66 19h2.16a4.36 4.36 0 00-1.62 3.5A4.31 4.31 0 005.81 26H3.66A3.92 3.92 0 000 30.15a3.91 3.91 0 003.66 4.19H12v5A10.89 10.89 0 0022.88 50.2h7.68a9.89 9.89 0 0018 0h42.93a9.89 9.89 0 0018 0h7.22a10.9 10.9 0 0010.9-10.87v-7.25a4.64 4.64 0 00-.07-.71m-88 16.24a1.49 1.49 0 111.49-1.49 1.5 1.5 0 01-1.49 1.49m60.93 0a1.49 1.49 0 111.53-1.49 1.51 1.51 0 01-1.49 1.49" fill="#fd0"/><path class="icls-2" d="M109.93 5.32l4.93 23.18a1.48 1.48 0 001.45 1.18h7l-3.37-16.84c-.83-4.14-3.46-7.68-7.66-7.68h-2.38v.16z"/><path class="icls-2" d="M123.35 33.22h-7a5.08 5.08 0 01-4.93-4L106.44 6l-.06-.34-.09-.38v-.1h-86a3.64 3.64 0 00-3.62 3.62v7.79h2.59v4.14h-2.61v3.54h2.59v4.14h-2.59V30h2.59v9a5.19 5.19 0 005.11 5.18H31a8.82 8.82 0 0117.4 1.94v.35h43.3v-.35a8.83 8.83 0 0117.65 0v.35h5.25a9.13 9.13 0 009.09-9.09v-4.16zM44.61 30.3h-3.89v-9.94h3.89zm9.67 0h-3.89v-9.94h3.89zM69 24.17a5.56 5.56 0 01-4.2-5.37v-4a1.28 1.28 0 011.2-1.24l2.14 3.26a.1.1 0 00-.09.08v2A2.21 2.21 0 0070 21zm23-7.56a5 5 0 00-5 3.56s.06.08.17.08L90.25 23H84a1.27 1.27 0 01-1-.46 1.2 1.2 0 01-.25-1A9.52 9.52 0 0192 13.61z"/><path class="icls-3" d="M66.48 69.5v-.25l-1.62-3.44a1.28 1.28 0 00-1.7-.62 1.27 1.27 0 00-.6 1.7l1.35 2.88-1.39 2.88A1.28 1.28 0 0063 74.3a1 1 0 00.56.13 1.23 1.23 0 001.14-.71l1.66-3.43v-.13a.25.25 0 000-.12.3.3 0 000-.13v-.12a.32.32 0 000-.13zm-6.23-1.57a1.8 1.8 0 00-1.83 1.78 1.84 1.84 0 001.8 1.82 1.81 1.81 0 001.78-1.8 1.77 1.77 0 00-1.78-1.8m-5.01-.05a1.81 1.81 0 00-1.8 1.81 1.8 1.8 0 003.6 0 1.84 1.84 0 00-1.8-1.83m-5.01 0a1.84 1.84 0 00-1.82 1.81 1.8 1.8 0 101.82-1.81m-31.05.92C20.18 68 21 66.5 21 64s-1-5.2-5.59-5.2h-3c-1.08 0-1.31.56-1.31 1v20.86a.47.47 0 00.48.46h3.85c3.92 0 6.28-2.88 6.28-7.75 0-2.88-1.29-4.1-2.57-4.59m-4.56-6.86h1c.89 0 1.8.31 1.8 2.57 0 1.92-.64 3-1.76 3h-1zM15.5 78h-.91v-7.38h.93c1.45 0 2.34.12 2.34 3S17 78 15.5 78M35 58.79c-2.59 0-3 0-3 1v18.04a7.37 7.37 0 01-2.22.37c-2.11 0-2.48-1.2-2.48-3.71V59.25a.47.47 0 00-.46-.46c-2.69 0-3 0-3 1v14.64c0 3.62.72 7 6 7a11.4 11.4 0 005.45-1.18.46.46 0 00.21-.39V59.25a.47.47 0 00-.46-.46M42.5 66a4.05 4.05 0 01-1.3-2.71c0-1 .93-1.66 2.5-1.66a5 5 0 012.71.68.46.46 0 00.63-.06 2.72 2.72 0 00.74-1.76c0-.91-.79-2-4.47-2s-5.74 1.87-5.74 4.87a7.26 7.26 0 002 4.72l3.09 3.56c1.24 1.45 1.67 2.36 1.67 3.67 0 1.82-.8 2.67-2.54 2.67A4 4 0 0139 77a.4.4 0 00-.37-.13.38.38 0 00-.31.19 3.51 3.51 0 00-.75 2c0 1.14 1.39 2.3 4.47 2.3 3.84 0 5.95-2.2 5.95-6.21a7.7 7.7 0 00-2.18-5.47zM79 59.23c-.21-.33-.64-.48-1.37-.48a8.2 8.2 0 00-1.68.21.45.45 0 00-.25.16L71.49 67v-7.86a.37.37 0 00-.37-.35c-2.61 0-2.88 0-2.88.89v21a.37.37 0 00.35.38c2.61 0 2.9 0 2.9-.85v-9.57a3 3 0 01.62.5c1.66 1.8 2.49 4.86 3.36 9.56a.31.31 0 00.31.29 16.67 16.67 0 001.8.11 1.63 1.63 0 001.18-.31.89.89 0 00.19-.73c-.79-5.78-2.41-9.71-4.81-11.72L79 60a.81.81 0 000-.78m12-.43h-1.95a.34.34 0 00-.2.06 3.42 3.42 0 00-1.2 2.26l-.92 4.74c-.35 1.87-.66 3.71-1 5.68-.21-.91-.39-1.8-.58-2.65-.27-1.22-.54-2.42-.81-3.73l-1.54-6.09a.36.36 0 00-.35-.27h-1.76c-.27 0-1.1 0-1.1.79a6.47 6.47 0 00.41 1.59c1.16 4.21 3.32 12 4.52 15.41-.09.64-.29 1.6-.77 1.6a3.64 3.64 0 01-1.28-.42.37.37 0 00-.48.15 3.53 3.53 0 00-.48 2c.13.7 1.18 1.2 2.55 1.2h.17c2.42 0 2.9-2.26 3.5-5.09v-.23c.48-2 1.61-7.35 2.55-11.68.47-2.24.87-4.12 1-4.93a.36.36 0 00-.08-.31.34.34 0 00-.29-.13m5.09.05h-3a.78.78 0 00-.89.89v21a.37.37 0 00.35.38c2.59 0 2.86 0 2.86-.85V72.3H96c2.26 0 6-.92 6-7.07 0-4.39-1.91-6.44-6-6.44m.29 10.48h-1v-7.58h1.18c1 0 2 .37 2 3.27 0 3.79-1.14 4.31-2.24 4.31m11.48-1.97h-1.3v-8.16a.37.37 0 00-.35-.35c-2.59 0-2.92 0-2.92 1v20.87a.37.37 0 00.37.38h4c3.79 0 6.06-2.72 6.06-7.25 0-4.37-1.9-6.49-5.84-6.49m-.18 10.82l-1.12-.05v-7.68c.37 0 1-.06 1.18-.06 1.08 0 2.34.39 2.34 3.29s-.87 4.5-2.4 4.5m14.89-16.37c.83 0 .83-.43.83-2.61a.37.37 0 00-.38-.35h-7.35a.91.91 0 00-.89.89v21a.38.38 0 00.35.32h7.29c.85 0 .85-.46.85-2.61a.37.37 0 00-.35-.38h-4.89v-7.52h3.79c.83 0 .83-.62.83-2.67a.37.37 0 00-.37-.37h-4.25v-5.7zm5.96-2.96h-3a.78.78 0 00-.89.89v21a.37.37 0 00.37.38c2.57 0 2.84 0 2.84-.85V72.3h.72c2.24 0 6-.92 6-7.07 0-4.39-1.91-6.44-6-6.44m.27 10.48h-1v-7.58h1.18c.95 0 2 .37 2 3.27 0 3.79-1.12 4.31-2.24 4.31M74.37 18.85v-4a1.29 1.29 0 00-1.3-1.28h-8.5a1.29 1.29 0 00-1.28 1.28v4a5.55 5.55 0 004.22 5.36v5.24h-2.77a1.09 1.09 0 00-1.08 1.1V31a1.09 1.09 0 001.08 1.1h8.16A1.11 1.11 0 0074 31v-.45a1.11 1.11 0 00-1.1-1.1h-2.75v-5.24a5.55 5.55 0 004.22-5.36m-5.28 2.23h-.52a2.17 2.17 0 01-1.95-2.17V17a.08.08 0 01.09-.08h4.22A.07.07 0 0171 17v1.95a2.15 2.15 0 01-1.92 2.17M56 31.29v-1.05a.81.81 0 00-.81-.81h-2.26v-8.18h1.72a.93.93 0 00.79-1.43l-3.06-5a1 1 0 00-1.6 0l-3.09 5a.93.93 0 00.79 1.43h1.74v8.18H43.3v-8.18H45a.94.94 0 00.81-1.43l-3.08-5a1 1 0 00-1.6 0l-3.09 5a.94.94 0 00.81 1.43h1.72v8.18h-2.22a.8.8 0 00-.78.81v1.05a.8.8 0 00.78.81h16.8a.81.81 0 00.81-.81m36.47.71h.43a3.91 3.91 0 003.84-4 1.3 1.3 0 10-2.59 0 1.32 1.32 0 01-1.25 1.37h-.43A1.32 1.32 0 0191.19 28v-5h7.08a1.26 1.26 0 001-.44 1.24 1.24 0 00.27-1 9.3 9.3 0 00-18.39 0 1.23 1.23 0 00.25 1 1.29 1.29 0 001 .44h6.3v5.11a3.9 3.9 0 003.83 4m-7-11.81c-.1 0-.17 0-.17-.06a5.3 5.3 0 0110 0s0 .06-.17.06zm-71.1-1.97v2.36H7.87c-.68 0-1.24.79-1.24 1.78s.56 1.76 1.24 1.76h21.35c.68 0 1.24-.79 1.24-1.76s-.56-1.78-1.24-1.78H17.73v-2.36zm11.83 11.82c0-1-.56-1.78-1.24-1.78h-7.29v-2.44h-3.3v2.44H3.66c-.68 0-1.24.81-1.24 1.78s.58 1.76 1.24 1.76H25c.68 0 1.24-.78 1.24-1.76m74.27 23.43A7.47 7.47 0 1093 46.12a7.46 7.46 0 007.48 7.46m0-11.37a3.92 3.92 0 11-3.94 3.91 3.92 3.92 0 013.94-3.91M32.1 46.12a7.47 7.47 0 107.48-7.48 7.48 7.48 0 00-7.48 7.48m11.39 0a3.92 3.92 0 11-3.91-3.91 3.93 3.93 0 013.91 3.91m-12.74 0a8.88 8.88 0 01.25-1.88h-8.16a5.19 5.19 0 01-5.11-5.18v-5.3h-3.3v5.57a8.46 8.46 0 008.45 8.45h8a9.07 9.07 0 01-.16-1.66"/><path class="icls-3" d="M3.66 16.55H25c.68 0 1.24-.79 1.24-1.78S25.7 13 25 13h-7.27v-1.92A5.18 5.18 0 0122.9 5.9h81.69l5.09 24a5.08 5.08 0 004.93 4h7v5.82a4.89 4.89 0 01-.89 2.53h-.1a5.28 5.28 0 01-3.86 2.07h-7.65a8.27 8.27 0 01.21 1.88 9.07 9.07 0 01-.16 1.66h7.56a8.46 8.46 0 008.47-8.45v-7.33a2.09 2.09 0 000-.35l-4.66-22.51a8.52 8.52 0 00-8.32-6.8H22.88a8.46 8.46 0 00-8.45 8.45V13H3.66c-.68 0-1.24.79-1.24 1.77s.58 1.78 1.24 1.78M112.21 6a4.94 4.94 0 014.84 4l4.19 20.4h-6.63a1.53 1.53 0 01-1.47-1.2l-3-13.92H113l1.11 5.24A2 2 0 00116 22a1.9 1.9 0 00.41 0 2 2 0 001.51-2.33l-1.44-6.79a2 2 0 00-1.92-1.55h-5.2L108.23 6zM48.19 44.24a8.27 8.27 0 01.21 1.88 9.07 9.07 0 01-.16 1.66h43.59a9.07 9.07 0 01-.16-1.66 8.88 8.88 0 01.21-1.88z"/></g></g></symbol><symbol viewBox="0 0 384 512" id="map-marker" xmlns="http://www.w3.org/2000/svg"><path d="M172.268 501.67C26.97 291.031 0 269.413 0 192 0 85.961 85.961 0 192 0s192 85.961 192 192c0 77.413-26.97 99.031-172.268 309.67-9.535 13.774-29.93 13.773-39.464 0zM192 272c44.183 0 80-35.817 80-80s-35.817-80-80-80-80 35.817-80 80 35.817 80 80 80z" fill="#999"/></symbol><symbol viewBox="0 0 90.17 62.51" id="mark" xmlns="http://www.w3.org/2000/svg"><defs><style>.cls-1{fill:none;stroke:#18120e;stroke-linecap:round;stroke-linejoin:round;stroke-width:2.37px}</style></defs><g id="kLayer_2" data-name="Layer 2"><g id="kСлой_1" data-name="Слой 1" stroke="#18120e" stroke-linecap="round" stroke-linejoin="round"><path d="M17.57 23.71c5.6-2.66 14.22-2.92 19.4 2.7 8.68 9.4-.68 24 9.26 31.57 7.85 6 15 2.51 18.13.4" stroke-dasharray="0 4.02" stroke-width="2.37" fill="none"/><circle cx="6.76" cy="33.7" r="5.9" stroke-width="1.73" fill="none"/><path d="M76.54 33.53L72.75 58 69 33.53h0a16.55 16.55 0 117.58 0z" fill="#ffdb2e" stroke-width="1.73"/><circle cx="72.75" cy="17.42" r="8.62" fill="#fff" stroke-width="1.73"/></g></g></symbol><symbol viewBox="0 0 50.03 60.98" id="phone" xmlns="http://www.w3.org/2000/svg"><defs><style>.lcls-2{stroke:#18120e;stroke-linecap:round;stroke-linejoin:round;stroke-width:1.61px;fill:#fff}.lcls-4{fill:#18120e}</style></defs><g id="lLayer_2" data-name="Layer 2"><g id="lСлой_1" data-name="Слой 1"><rect x=".81" y="6.82" width="34.58" height="53.36" rx="6.59" stroke="#18120e" stroke-linecap="round" stroke-linejoin="round" stroke-width="1.61" fill="#ffdb2e"/><rect class="lcls-2" x="5.03" y="10.8" width="26.13" height="40.32" rx="3.42"/><path d="M14.79 56a.83.83 0 110-1.66h6.62a.83.83 0 110 1.66z" fill-rule="evenodd"/><path class="lcls-2" d="M41.09.81H21.76a8.13 8.13 0 00-8.13 8.13v5.55a8.13 8.13 0 008.13 8.13h.65v.94a9.58 9.58 0 003.26 7.21 9.08 9.08 0 01-.1-1.28 9.64 9.64 0 012.88-6.87h12.64a8.13 8.13 0 008.13-8.13V8.94A8.13 8.13 0 0041.09.81z"/><circle class="lcls-4" cx="36.25" cy="15.66" r="1.2"/><path class="lcls-2" d="M36.25 7.43v5.24"/><circle class="lcls-4" cx="31.71" cy="15.66" r="1.2"/><path class="lcls-2" d="M31.71 7.43v5.24"/><circle class="lcls-4" cx="27.16" cy="15.66" r="1.2"/><path class="lcls-2" d="M27.16 7.43v5.24"/></g></g></symbol><symbol viewBox="0 0 512 512" id="phone-alt" xmlns="http://www.w3.org/2000/svg"><path d="M497.39 361.8l-112-48a24 24 0 00-28 6.9l-49.6 60.6A370.66 370.66 0 01130.6 204.11l60.6-49.6a23.94 23.94 0 006.9-28l-48-112C145.46 3.874 133.915-1.962 122.6.61l-104 24A24 24 0 000 48c0 256.5 207.9 464 464 464a24 24 0 0023.4-18.6l24-104c2.555-11.37-3.324-22.952-14.01-27.6z" fill="#999"/></symbol><symbol viewBox="0 0 17 32" id="select-arrow" xmlns="http://www.w3.org/2000/svg"><g fill="none"><path fill="#E1E1E1" d="M0 0h17v32H0z"/><path d="M8.068 18.825a.62.62 0 00.864 0l3.889-3.805a.589.589 0 000-.845.62.62 0 00-.864 0L8.5 17.557l-3.457-3.382a.62.62 0 00-.864 0 .589.589 0 000 .845l3.889 3.805zm.075-1.625v.8h.714v-.8h-.714z" fill="#000"/></g></symbol><symbol viewBox="0 0 640 448" id="users" xmlns="http://www.w3.org/2000/svg"><path d="M96 192c35.3 0 64-28.7 64-64s-28.7-64-64-64-64 28.7-64 64 28.7 64 64 64zm448 0c35.3 0 64-28.7 64-64s-28.7-64-64-64-64 28.7-64 64 28.7 64 64 64zm32 32h-64c-17.6 0-33.5 7.1-45.1 18.6 40.3 22.1 68.9 62 75.1 109.4h66c17.7 0 32-14.3 32-32v-32c0-35.3-28.7-64-64-64zm-256 0c61.9 0 112-50.1 112-112S381.9 0 320 0 208 50.1 208 112s50.1 112 112 112zm76.8 32h-8.3c-20.8 10-43.9 16-68.5 16s-47.6-6-68.5-16h-8.3C179.6 256 128 307.6 128 371.2V400c0 26.5 21.5 48 48 48h288c26.5 0 48-21.5 48-48v-28.8c0-63.6-51.6-115.2-115.2-115.2zm-223.7-13.4C161.5 231.1 145.6 224 128 224H64c-35.3 0-64 28.7-64 64v32c0 17.7 14.3 32 32 32h65.9c6.3-47.4 34.9-87.3 75.2-109.4z" fill="#999"/></symbol></svg>