<svg xmlns="http://www.w3.org/2000/svg" viewBox="0 0 1867.63 1793.38"><defs><style>.cls-1{fill:#feda00;}.cls-2{fill:#fd0;}.cls-3,.cls-4{fill:none;stroke:#000;stroke-linecap:round;stroke-linejoin:round;stroke-width:5.67px;}.cls-4{stroke-dasharray:0 14.18;}</style></defs><title>Asset 1</title><g id="Layer_2" data-name="Layer 2"><g id="Слой_1" data-name="Слой 1"><path class="cls-1" d="M674.14,1792.32c-210,8-271-46-274-141-4.62-146.09,380.83-171,670.08-160.38,472.45,17.35,424.89-102.67,432.89-118.08,0,0,354.16-12.62,364,153.19,16.52,278.3-366,267.27-366,267.27h-827Z"/><path class="cls-2" d="M0,110.44s1415.85-270.62,1471.3,71.19c29.23,180.23-132.14,252-407.18,235.77-261-15.4-868.47-12.68-904.85,411.76h0C92.59,842.91,29.45,793.69,26.52,725.67Z"/><line class="cls-3" x1="32.11" y1="99.77" x2="32.11" y2="99.77"/><path class="cls-4" d="M46,97.17c145.87-26.81,1388.7-245.23,1424.69,91.49,19.41,181.55-135.56,242.59-410.86,231.26-256.34-10.56-869.18-13.87-901.65,409.24-36.17,471.41,450.54,461.41,1083.47,458.06,370.31-2,286.31,162.83,110.34,187.72-246.13,34.82-936.09-47.56-951.89,176.38C389.49,1802.11,568.61,1777,683.48,1776"/><line class="cls-3" x1="690.58" y1="1775.92" x2="690.58" y2="1775.92"/></g></g></svg>